<?xml version="1.0" encoding="utf-8"?>
<!-- Generator: Adobe Illustrator 20.1.0, SVG Export Plug-In . SVG Version: 6.00 Build 0)  -->
<svg version="1.1" id="Layer_1" xmlns="http://www.w3.org/2000/svg" xmlns:xlink="http://www.w3.org/1999/xlink" x="0px" y="0px"
	 viewBox="0 0 500 500" style="enable-background:new 0 0 500 500;" xml:space="preserve">
<style type="text/css">
	.st0{fill:#231F20;}
	.st1{fill:none;stroke:#000000;stroke-linecap:round;stroke-linejoin:round;stroke-miterlimit:10;}
</style>
<g>
	<g>
		<g>
			<g>
				<path class="st0" d="M238.5,162.1l0-0.6C238.5,161.8,238.5,162,238.5,162.1z"/>
				<path class="st0" d="M272.6,234.2l-0.2-0.1C272.5,234.2,272.6,234.2,272.6,234.2z"/>
				<path class="st0" d="M289.2,241.4l0.3,0.3C289.4,241.5,289.3,241.5,289.2,241.4z"/>
				<g>
					<path class="st0" d="M268.5,217.3c-4.2-5.8-8.1-11.7-11.4-17.9c-3.3-6.2-6.3-12.6-8.4-19.2c-2.2-6.8-3.9-13.8-4.3-21
						c-0.5-7.2,0-14.4,1.5-21.6c1.7-7.6,4.5-14.9,8-21.8c3.5-6.9,7.8-13.5,12.5-19.8c9.6-12.5,20.9-23.3,34-32.2
						c12.6-8.6,26.2-15.9,40.9-20.1c2-0.5,3.9-1,5.9-1.5c2-0.5,4-0.8,6-1.3c1-0.3,3.9-0.8,6.9-1.5c3-0.6,5.9-1.1,6.9-1.3
						c0.9-0.2-5.1,0.1-6.7,0.2c-5.4,0.4-13.7,1.8-17.9,2.9c-1.1,0.2-2.1,0.5-3,0.8c-0.9,0.3-1.8,0.5-2.7,0.8
						c-0.8,0.3-1.7,0.5-2.4,0.7c-0.8,0.3-1.5,0.5-2.3,0.8c-3.1,1-6.1,2.2-10.2,4C304.7,56,289.6,66.4,276,79
						c-2.8,2.5-5.3,5.3-7.9,8.1c-2.5,2.9-5,5.8-7.3,8.9c-4.6,6.2-8.8,12.7-12.2,19.6c-3.7,7.4-6.7,15.2-8.5,23.4
						c-1.8,8.2-2.4,16.7-1.5,25.1c0.2,2.2,0.6,4.4,0.9,6.7c0.1,1.1,0.4,2.2,0.6,3.3l0.7,3.3c0.4,2.2,1.2,4.3,1.8,6.5l1,3.2l1.1,3.1
						c3.1,8.3,7.3,16.3,12.1,23.7c4.8,7.3,10.2,14.1,15.9,20.7c5.8,6.5,12,12.5,18.3,18.4c7.4,6.8,14.9,13.4,22.1,20.2
						c4.5,4.3,9,8.6,13.1,13.2c4.1,4.6,7.9,9.4,11.4,14.5c3.5,5,6.8,10.3,9.7,15.7c1.4,2.7,2.8,5.4,4.1,8.2c1.3,2.8,2.4,5.6,3.4,8.4
						c3.5,10.3,4.7,21.2,3.7,31.9c-0.5,5.3-1.4,10.6-3.1,15.6c-0.4,1.2-0.8,2.5-1.3,3.7l-0.7,1.8l-0.8,1.8c-0.3,0.6-0.6,1.2-0.9,1.8
						l-1,1.9c-0.7,1.2-1.3,2.5-2,3.7c-5.7,10.6-13.7,25-17,34.9c-0.8,2.4-0.5,3.4,0,3.6c-0.4-0.2,1.2-3.2,3.2-6
						c1.9-2.9,4.1-5.8,4.3-6.2c3.3-4.9,6.6-10.4,9.9-15.6c3.2-5.1,6.3-9.7,9.3-14.8c3-5.3,5.2-11.1,6.4-17.6
						c2.5-13.7,1.6-27.8-2.6-41c-0.2-0.8-0.5-1.7-0.8-2.5l-0.9-2.4c-0.6-1.6-1.3-3.2-2-4.7c-1.4-3.1-2.9-6.2-4.5-9.2
						c-3.2-6-6.8-11.8-10.7-17.3c-3.3-4.7-6.9-9.3-10.7-13.6c-1.9-2.2-3.9-4.3-5.9-6.4c-2-2-4.1-4-6.1-6
						c-8.3-7.9-16.9-15.2-25.1-22.9c-4.9-4.6-9.7-9.3-14.3-14.3c-1.1-1.3-2.3-2.5-3.4-3.8c-1.1-1.3-2.2-2.6-3.3-3.9
						C272.6,222.8,270.5,220.1,268.5,217.3z"/>
				</g>
			</g>
		</g>
	</g>
	<g>
		<g>
			<g>
				<path class="st0" d="M295.8,466l0.4,0C296,466,295.9,466,295.8,466z"/>
				<path class="st0" d="M239.9,466.8l0.1-0.1C239.9,466.7,239.9,466.8,239.9,466.8z"/>
				<path class="st0" d="M227.6,473.1l-0.3,0C227.4,473.1,227.5,473.1,227.6,473.1z"/>
				<g>
					<path class="st0" d="M250.9,474.5c10.5,0.3,21,0,31.3-0.9c10.6-0.9,21.1-2.4,31.9-3.9c11.3-1.5,22.6-3.5,33.6-6.7
						c1.4-0.4,2.8-0.8,4.1-1.2l2.1-0.7l1-0.3l0.6-0.2c0.1,0,0.2-0.1,0.4-0.1l0.3-0.1c2.6-1.2,5.2-2.4,7.7-3.9
						c5-2.9,9.8-6.6,13.3-11.7c3.3-4.9,5-11,4-17c-0.4-3-1.8-5.9-3.5-8.2c-1.8-2.4-3.9-4.4-6.1-6.2c-2.4-1.9-4.9-3.5-7.6-5
						c-0.6-0.4-2.7-1.3-4.8-2c-2.1-0.8-4.2-1.4-4.9-1.6c-0.6-0.2,3.2,1.9,4.2,2.5c1.7,1,3.9,2.2,5.8,3.5c2,1.3,3.8,2.7,5,3.6
						c2.4,1.9,4,3.5,5.3,5.3c1.3,1.8,2.6,3.6,3.4,6.5c0.8,3,0.7,6.2-0.1,9.2c-0.8,3-2.1,5.8-4,8.3c-3.7,5-9.1,8.4-14.8,11
						c-1.2,0.5-2.4,1-3.6,1.5l-0.9,0.4l-0.4,0.2c-0.1,0-0.1,0-0.3,0.1l-1.9,0.5c-2.5,0.7-5.1,1.4-7.7,2.1
						c-5.2,1.3-10.4,2.4-15.7,3.2c-11.3,1.7-22.7,2.6-34.2,3.5c-12.2,1-24.5,1-36.7,0.9c-12.1,0-24.1-0.4-36.2-1.5
						c-7-0.6-14-1.5-20.9-2.7c-8.8-1.4-17.4-3.2-25.9-5.6c-4.2-1.2-8.4-2.5-12.4-4.2c-4-1.6-7.9-3.5-11.3-5.8c-1.6-1-3-2.2-4.3-3.4
						c-1.3-1.2-2.4-2.6-3.2-4c-1.7-2.8-2.1-5.8-1.3-8.8c0.7-3,2.7-5.9,5.1-8.6c2.4-2.7,5.3-5.1,8.4-7.4c3.3-2.4,7.4-4.8,11.6-6.7
						c4.2-2,8.3-3.4,11.6-4.4c1.6-0.5,2.1-1.1,2.1-1.7c0,0.5-2.3,0.2-4.7,0.3c-2.4,0-5.1,0.2-5.4,0.3c-4.2,0.7-8.6,2.3-12.7,4.2
						c-4,1.8-7.7,3.8-11.2,6.4c-1.7,1.3-3.4,2.7-5.1,4.3c-1.6,1.6-3.1,3.5-4.4,5.7c-1.4,2.3-2.4,5-2.8,7.9c-0.4,2.9-0.1,6,0.9,8.7
						c1,2.8,2.6,5.2,4.4,7.2c1.8,2,3.8,3.7,5.9,5.2c4.2,3,8.7,5.2,13.2,7.1c4.5,1.9,9.2,3.4,13.8,4.7c15.9,4.4,32.1,6.7,48.3,8.3
						C230.8,473.6,240.8,474.3,250.9,474.5z"/>
				</g>
			</g>
		</g>
	</g>
	<g>
		<g>
			<g>
				<path class="st0" d="M156.9,80.8l0.5-0.5C157.2,80.6,157,80.7,156.9,80.8z"/>
				<path class="st0" d="M117.3,165.7l-0.1-0.2C117.3,165.7,117.3,165.7,117.3,165.7z"/>
				<path class="st0" d="M124.7,185.2l0.1,0.5C124.7,185.5,124.7,185.3,124.7,185.2z"/>
				<g>
					<path class="st0" d="M127.4,148.6c3.9-16.2,10.9-31.6,20.1-45.5c4.7-7.2,10-13.9,15.9-20.2c2.9-3.2,6-6.2,9.2-9.1
						c3.2-2.9,6.6-5.7,10.1-8.4c14.8-11.3,31.2-20,48.6-26.5c17.6-6.4,35.6-9.9,54.4-11.2c18-1.2,36.2-1,54.1,1.7
						c2.4,0.4,4.8,0.7,7.1,1.2c2.4,0.5,4.7,0.9,7.1,1.4c1.1,0.3,4.6,0.9,7.7,2.1c1.6,0.6,3,1.4,4.1,2.2c1.1,0.8,1.9,1.5,2.3,1.9
						c0.3,0.4-0.4-0.8-1.7-2.1c-1.3-1.2-3.1-2.4-4-2.8c-2.8-1.5-6.7-2.7-10.5-3.6c-3.8-0.9-7.5-1.7-10-2.1
						c-10.2-1.8-14.9-2.4-25.5-3.2c-21.8-1.4-43.3,0.1-64.6,4.2c-8.6,1.7-17.3,4.2-25.8,7.4c-8.5,3.2-16.7,7.1-24.6,11.3
						c-8.5,4.6-16.7,9.8-24.5,15.6c-7.7,5.9-15,12.4-21.6,19.6c-3.5,3.8-6.9,7.8-10,12c-3.2,4.1-6.1,8.5-8.9,12.9
						c-2.8,4.4-5.2,9.1-7.5,13.8c-2.2,4.7-4.1,9.6-5.8,14.6c-1.6,4.9-2.9,9.9-4,15c-1,5.1-1.7,10.3-2,15.4
						c-0.3,5.2-0.2,10.4,0.1,15.5c0.4,5.2,1,10.3,1.9,15.4c2.2,11.8,5.5,23.4,9.8,34.5c2.7,7,5.7,13.9,9.1,20.7
						c3.3,6.8,6.9,13.3,10.4,19.8c7.1,13,14.3,25.9,20.1,39.4c5.3,12.1,9,24.6,11.9,37.3l0.5,2.4c0.2,0.8,0.4,1.7,0.6,2.5
						c0.4,1.7,0.8,3.3,1.3,4.9c0.9,3.2,1.8,6.4,2.5,9.4c0.7,3.1,1.2,6.1,1.3,9.1c0,3.1,0,6.4-0.3,9.6c-0.6,6.8-2.3,14.6-5.6,21.4
						c-1.6,3.4-3.6,6.6-5.7,9.4c-1,1.4-2.1,2.7-3.2,4c-1.1,1.2-2.1,2.4-3.1,3.5c-0.4,0.5-0.7,0.8-0.8,1c-0.1,0.2-0.4,0.4-0.5,0.5
						c-0.3,0.3-0.5,0.6-0.6,0.8c0-0.3,0.8-0.1,1.8-0.6c0.5-0.3,1.2-0.8,2-1.4c0.7-0.6,1.5-1.2,2.3-1.8c3.2-2.5,6.2-5.5,6.6-6
						c4.7-5.2,8.3-12.3,10.5-19.4c2.1-6.9,3.1-13.8,3.4-20.8c0.2-7.3-1.7-14.4-3.6-21.5c-0.5-1.9-1-3.7-1.4-5.6l-1.3-5.7
						c-0.9-3.9-1.9-7.7-3-11.5c-2.2-7.6-4.8-15.1-7.9-22.5c-6.2-14.6-13.9-28.4-21.3-42.2c-3.2-5.9-6.4-11.7-9.3-17.6
						c-2.9-5.9-5.7-11.9-8.2-17.9c-2.5-6.1-4.7-12.2-6.6-18.5c-1.9-6.3-3.4-12.6-4.6-19C123.5,180.2,123.5,164,127.4,148.6z"/>
				</g>
			</g>
		</g>
	</g>
	<g>
		<g>
			<g>
				<path class="st0" d="M200.9,216.1L200.9,216.1C200.9,216.1,200.9,216.1,200.9,216.1z"/>
				<path class="st0" d="M200.5,215.4L200.5,215.4C200.5,215.4,200.5,215.4,200.5,215.4z"/>
				<path class="st0" d="M193.7,213.5L193.7,213.5C193.7,213.4,193.7,213.4,193.7,213.5z"/>
				<g>
					<path class="st0" d="M191.8,219c-0.4,1.4-0.7,2.8-0.9,4.1c1.3,0,2.6-0.1,3.8-0.3c2.8-0.3,5.4-1,7.3-1.2
						c1.5-0.2,3.1-0.3,4.6-0.9c1.5-0.5,3-0.8,4.5-1.1c1.5-0.3,2.7-1.3,4.2-1.6c0.4-0.1,0.8-0.1,1.2-0.1c0.2,0,1-0.8,1.1-1
						c0-0.1-0.7-0.4-0.8-0.4c-0.6-0.2-1.5-0.4-2-0.5c-0.9-0.1-1.3-0.1-2.1,0.1c-1.7,0.3-3.3,0.6-5,0.3c-1.4-0.2-2.7,0.3-4,0.2
						c-0.7,0-1.5-0.2-2.1-0.3c-0.2-0.1-0.4-0.2-0.5-0.2c-0.3,0-0.3-0.2-0.3-0.3c0.1-0.1,0.1-0.2,0.1-0.2c0-0.1-0.1-0.1-0.1-0.2
						c0-0.1,0-0.1,0-0.2c0-0.1,0,0,0.2-0.5c0.3-0.8,0.7-1.6,1.1-2.3c1-1.9,2-3.8,3.2-5.5c1.2-1.6,2.9-2.5,4.1-4
						c0.6-0.8,1.6-1.8,1.3-3.5c0-0.1-0.1-0.2-0.1-0.3l-2.2,0.3c0.2-0.3,0.5-0.7,0.7-1.1c-0.1,0.2-0.2,0.2-0.2,0.2l1.1-0.1
						c-0.3,0.2-1.7-0.2-1.8-0.2c-0.8,0-1.4,0.2-2.1,0.4c-1.3,0.3-2.8,0.4-3.8,1.2c-2.1,1.7-3.6,4-5,6.4c-1.2,2-2.1,4.1-2.9,6.3
						l-0.2,0.6c-0.1,0.3-0.2,0.6-0.3,0.8c-0.2,0.6-0.4,1.2-0.6,1.8C192.4,216.6,192.1,217.8,191.8,219z"/>
				</g>
			</g>
		</g>
	</g>
	<g>
		<g>
			<g>
				<path class="st0" d="M219.5,272.4L219.5,272.4C219.5,272.4,219.5,272.4,219.5,272.4z"/>
				<path class="st0" d="M220.1,273L220.1,273C220.1,273,220.1,273,220.1,273z"/>
				<path class="st0" d="M227.1,273.5L227.1,273.5C227.2,273.5,227.2,273.5,227.1,273.5z"/>
				<g>
					<path class="st0" d="M227.5,268.7c0-0.8,0-1.6,0-2.3c-1.4-0.2-2.9-0.3-4.2-0.3c-1.1,0-2.2,0.1-3.1,0.3
						c-0.6,0.2-1.2,0.3-1.8,0.3c-1.2,0-2.5-0.1-3.7,0.2c-1.2,0.3-2.4,0.2-3.7,0.3c-1.2,0-2.3,0.8-3.6,0.7c-0.3,0-0.7,0-1-0.1
						c-0.2,0-0.9,0.6-1,0.9c0,0.1,0.5,0.4,0.7,0.5c0.5,0.3,1.2,0.7,1.6,0.8c0.7,0.2,1,0.3,1.7,0.3c1.3,0.1,2.7,0.1,4,0.7
						c1.1,0.5,2.2,0.2,3.2,0.5c0.6,0.2,1.1,0.4,1.7,0.6c0.3,0.1,0.6,0.2,0.8,0.3c0.1,0,0.3,0.1,0.4,0.1c0.1,0,0.1,0,0.1,0l0,0
						c0.3,0,0.3,0.3,0.3,0.4c0,0,0,0,0,0.1c0,0.1,0.1,0.1,0.1,0.2c0,0,0,0.1,0.1,0.1c0,0,0,0.2,0,0.3l0,0.5c0,0.7-0.1,1.5-0.2,2.2
						c-0.2,1.8-0.2,3.7-0.3,5.5c-0.2,1.6-1.1,3.1-1.1,4.7c0,0.8-0.1,1.8,1.1,2.8c0.3,0.3,0.9,0.5,1.5,0.7c-0.4-0.1-0.1-0.3,0.3-0.4
						c0.4-0.1,1-0.3,1.1-0.3c0.6-0.3,1-0.8,1.4-1.2c0.9-0.8,2-1.5,2.3-2.5c0.7-2,0.7-4.1,0.9-6.1c0.1-1.7,0.1-3.5,0.2-5.2
						c0-0.3,0-0.5,0.1-0.8c0-0.5,0.1-1,0.1-1.5C227.4,270.8,227.5,269.8,227.5,268.7z"/>
				</g>
			</g>
		</g>
	</g>
	<g>
		<g>
			<g>
				<path class="st0" d="M229.1,230.5l-0.2-0.3C229,230.3,229.1,230.4,229.1,230.5z"/>
				<path class="st0" d="M266.3,276l-0.1,0C266.3,276,266.3,276,266.3,276z"/>
				<path class="st0" d="M280,280l0.2,0.2C280.1,280.1,280,280,280,280z"/>
				<g>
					<path class="st0" d="M263.8,262.5c-7.1-7.9-14.2-15.9-20.8-24c-6.8-8.4-13.4-17-18.7-26.6c-5.7-10.2-10.2-20.8-13.6-31.8
						c-0.4-1.4-0.8-2.8-1.3-4.2c-0.3-1.4-0.6-2.8-1-4.2c-0.3-1.4-0.6-2.8-0.9-4.2l-0.6-4.3l-0.6-4.3c-0.1-1.4-0.2-2.9-0.2-4.3
						c-0.1-1.4-0.2-2.9-0.2-4.3c0-1.4,0-2.9,0-4.3c0.3-11.2,1.4-22.4,4.1-33.5c0.7-2.9,1.5-5.8,2.2-8.8c0.4-1.4,1.7-8.8,1.9-10.3
						c0.1-0.7-1.4,3.5-1.8,4.7c-1.4,3.8-3.3,9.7-4.1,12.8c-1.7,6.2-2.4,9.2-3.5,15.7c-1.1,6.7-1.8,13.5-2.1,20.3
						c-0.1,3.4,0.1,6.8,0.1,10.2c0,0.8,0,1.7,0.1,2.6l0.2,2.5c0.2,1.7,0.3,3.4,0.5,5.1c1.3,11,5.1,22.2,9.4,32.5
						c4.6,11.2,10.2,22,17.1,32.1c7.3,10.7,15,21,23.6,30.7c2.1,2.4,4.3,4.7,6.4,7l6.6,6.9c4.4,4.5,8.8,9,13.1,13.6
						c4.9,5.3,9.7,10.8,13.8,16.7c2.6,3.7,5.1,7.4,7.2,11.4c2.1,3.9,4,7.9,5.3,12.1c2.9,8.3,3.7,17.2,2.9,26c-0.7,8-3,15.7-6,23
						c-3.1,7.4-6.9,14.5-11.2,21.5c-1.2,1.8-2.4,3.9-3.8,5.9c-0.7,1-1.4,2.1-2.1,3.1c-0.7,1-1.4,2.1-2.1,3.1c-1.4,2.1-2.8,4.1-4,6
						c-1.2,1.9-2.4,3.7-3.3,5.4c-0.9,1.6-0.7,2.5-0.3,2.8c-0.4-0.3,1.4-2,3.3-3.7c1.9-1.7,3.9-3.5,4.2-3.7c1.6-1.5,3.1-3.2,4.6-5
						c1.5-1.7,3-3.6,4.4-5.4c5.6-6.9,10.6-13.4,14.8-22l0.8-1.7l0.7-1.7l1.5-3.5c0.5-1.2,0.9-2.4,1.3-3.6l1.2-3.6l1-3.7
						c0.3-1.2,0.7-2.4,0.9-3.7c0.4-2.5,1-5,1.2-7.6c1.1-10.2,0.2-20.7-3.1-30.5c-1.3-4.2-3.2-8.2-5.2-12c-1.1-1.9-2.1-3.8-3.3-5.6
						c-1.1-1.9-2.3-3.6-3.6-5.4c-4.9-7-10.5-13.4-16.2-19.7c-3.4-3.7-6.9-7.4-10.4-11.1c-1.8-1.9-3.5-3.7-5.2-5.6
						C267.3,266.3,265.5,264.4,263.8,262.5z"/>
				</g>
			</g>
		</g>
	</g>
	<g>
		<g>
			<g>
				<path class="st0" d="M215.3,289.5l0.2,0.3C215.4,289.7,215.4,289.6,215.3,289.5z"/>
				<path class="st0" d="M181.8,240l0.1,0.1C181.8,240,181.8,240,181.8,240z"/>
				<path class="st0" d="M169.8,231.8l-0.2-0.3C169.7,231.6,169.7,231.7,169.8,231.8z"/>
				<g>
					<path class="st0" d="M181.6,254.1c6,9.6,12.7,18.5,19.5,27.2c3.5,4.5,7,8.8,10.4,13.3c1.7,2.2,3.3,4.5,5,6.8
						c1.6,2.3,3.2,4.7,4.7,7.1c6.4,10.2,11.8,20.9,17.2,31.7c5.4,10.9,9.9,21.8,14.5,33.2c4.4,10.9,9.5,21.5,13,32.7
						c0.9,3,1.7,6,2.4,9c0.2,0.7,0.8,2.9,1.5,5.1c0.6,2.2,1.2,4.4,1.4,5.1c0.2,0.7-0.1-3.9-0.3-5.1c-0.4-4.1-1.7-10.4-2.6-13.6
						c-1.7-6.4-2.7-9.4-5.1-15.8c-2.5-6.6-5.1-13-7.5-19.5c-2.5-6.5-5-12.9-7.5-19.4c-4-10.6-9.3-21.2-14.5-31.4
						c-2.8-5.5-5.7-11-8.9-16.4c-3.2-5.4-6.6-10.6-10.2-15.7c-7.7-10.8-15.3-21.5-22.6-32.4c-3.6-5.3-7-10.7-10.2-16.3
						c-3.1-5.6-5.9-11.3-8.2-17.2c-2.6-6.9-4.7-14.1-6-21.3c-3.3-18.4-2.8-37.5,2.3-55.4c2.3-8.1,5.5-15.8,9.4-23.1
						c2-3.7,4.1-7.2,6.4-10.7c2.3-3.5,4.7-6.8,7.4-10c1.4-1.7,3-3.5,4.7-5.3c1.7-1.8,3.5-3.6,5.4-5.3c3.7-3.5,7.4-6.6,10.2-9.2
						c1.4-1.3,1.5-2.1,1.2-2.6c0.2,0.4-2,1.5-4.4,2.6c-2.4,1.1-4.9,2.4-5.2,2.6c-3.9,2.3-7.8,5.4-11.4,8.5c-3.5,3.1-6.7,6.1-9.6,9.5
						c-3,3.4-5.7,7.1-8.3,11.3c-5.4,8.9-9.5,18.5-12.5,28.5c-0.7,2.5-1.4,5-1.9,7.6c-0.3,1.3-0.6,2.5-0.8,3.8l-0.7,3.8
						c-0.8,5.1-1.3,10.3-1.5,15.5c-0.3,8.9,0.2,17.8,1.7,26.5c0.7,4.4,1.7,8.7,2.8,13c0.6,2.1,1.2,4.3,1.9,6.4l1.1,3.2l1.2,3.1
						c0.4,1.3,1,2.5,1.5,3.7c0.5,1.2,1,2.5,1.6,3.7c1.2,2.4,2.2,4.9,3.5,7.3C176,244.8,178.7,249.5,181.6,254.1z"/>
				</g>
			</g>
		</g>
	</g>
	<g>
		<g>
			<g>
				<path class="st0" d="M247.3,312.6L247.3,312.6C247.3,312.6,247.3,312.6,247.3,312.6z"/>
				<path class="st0" d="M249.2,304.6L249.2,304.6C249.2,304.5,249.2,304.6,249.2,304.6z"/>
				<path class="st0" d="M241.3,308.3L241.3,308.3C241.3,308.3,241.3,308.3,241.3,308.3z"/>
				<g>
					<path class="st0" d="M240.9,308.5C240.9,308.6,240.9,308.5,240.9,308.5c0.1,0.2,0.3,0.1,0.3,0.8c0.1,1.1,0.4,2.3,0.2,3.4
						c-0.3,1.1-0.6,2.2-0.7,3.4c-0.1,1.2-0.5,2.2-0.9,3.3c-0.4,1-0.2,2.3-0.7,3.3c-0.2,0.3-0.3,0.5-0.5,0.8
						c-0.1,0.1,0.1,0.9,0.3,1.2c0.1,0.1,0.7-0.2,0.8-0.3c0.5-0.3,1.2-0.7,1.4-0.9c0.5-0.5,0.7-0.7,1-1.3c0.6-1.2,1.1-2.4,2.1-3.5
						c0.8-0.9,0.8-2,1.4-3c0.6-1,1.4-2,1.7-3.2c0.1-0.3,0.2-0.6,0.3-0.9l0.4-0.9c0.4-1,0.8-2.1,1-3.2l0.3-1.6c0-0.5-0.1-0.9-0.1-1.4
						c0-0.2-0.1-0.4-0.2-0.6c-0.1-0.2-0.1-0.4-0.2-0.5c-0.1-0.3-0.5-0.8-0.8-1c-0.2-0.2-0.4-0.3-0.7-0.5c-0.5-0.3-1.2-0.6-2.1-0.7
						c-0.8-0.1-1.7-0.1-2.5-0.1l-2.2,0c-0.9,0-1.8,0-2.7,0c-1.6-0.1-3.2-0.9-4.9-0.6c-0.9,0.1-2.1,0.1-2.8,1.6
						c-0.2,0.4-0.3,1-0.3,1.6c0-0.9,0.9,1,1,1.1c0.4,0.6,0.9,0.8,1.3,1.2c0.8,0.8,1.6,1.7,2.5,2c1.9,0.5,3.8,0.4,5.7,0.5l0.3,0
						l0.1,0l0,0l0,0l0.1,0c0,0,0.1,0,0.2,0c0,0,0,0,0,0C241.2,308.4,240.9,308.5,240.9,308.5z"/>
				</g>
			</g>
		</g>
	</g>
	<g>
		<g>
			<g>
				<path class="st0" d="M277.8,320.6L277.8,320.6C277.8,320.6,277.8,320.6,277.8,320.6z"/>
				<path class="st0" d="M281.9,320.1L281.9,320.1C282,320.1,282,320.1,281.9,320.1z"/>
				<path class="st0" d="M282,313L282,313C282,313,282,313,282,313z"/>
				<g>
					<path class="st0" d="M280.1,312.9c-0.8,0.1-1.6,0.3-2.3,0.9c-0.7,0.5-1.4,1.3-2.1,1.4c-0.8,0.2-1.6,0.2-2.4,0.5
						c-0.8,0.3-1.6,0.3-2.4,0.2c-0.8-0.1-1.5,0.5-2.3,0.1c-0.2-0.1-0.4-0.2-0.6-0.3c-0.1-0.1-0.6,0.3-0.8,0.5
						c-0.1,0.1,0.1,0.6,0.2,0.7c0.2,0.4,0.6,1.1,0.8,1.2c0.4,0.4,0.6,0.6,1.1,0.7c1,0.3,2,0.5,3.1,1.1c0.9,0.5,1.7,0.1,2.6,0.2
						c0.9,0.2,1.9,0.5,2.8,0.4c0.9-0.2,1.9,0.1,2.8-0.1c0.9-0.2,1.7-0.5,2.6-0.6c0.5-0.1,1-0.1,1.5,0c0.3,0,0.6,0,0.9,0
						c0.3,0,0.7,0,1.1-0.1c0.8-0.1,1.6-0.2,2.4-0.3c1.4-0.2,3.2,0,4.6-1c0.7-0.5,1.8-1.3,1.3-2.9c-0.1-0.4-0.5-0.9-0.9-1.3
						c0.6,0.7-1.2-0.3-1.3-0.4c-0.6-0.3-1-0.3-1.4-0.5c-0.8-0.4-1.6-1.1-2.1-1.1c-1.1-0.1-2,0.2-3.2,0.3c-1.2,0.1-2.5,0.2-3.7,0.3
						C281.7,312.9,280.9,312.8,280.1,312.9z"/>
				</g>
			</g>
		</g>
	</g>
	<g>
		<g>
			<g>
				<path class="st0" d="M271.2,309.5L271.2,309.5C271.2,309.5,271.2,309.5,271.2,309.5z"/>
				<path class="st0" d="M273.1,306.3L273.1,306.3C273.2,306.3,273.2,306.3,273.1,306.3z"/>
				<path class="st0" d="M268,301.4L268,301.4C268,301.4,268,301.4,268,301.4z"/>
				<g>
					<path class="st0" d="M266.6,302.9c-0.6,0.7-0.9,1.7-1,2.7c-0.1,1.1,0.1,2.2-0.1,3.1c-0.3,1-0.6,2-0.5,3c0,0.5,0,1,0,1.5
						c0,0.5-0.1,1-0.1,1.5c0,1,0.7,1.9,0.7,2.8c0,0.3,0,0.5-0.1,0.8c0,0.1,0.6,0.6,0.8,0.7c0.1,0,0.5-0.5,0.5-0.6
						c0.3-0.4,0.7-1,0.8-1.3c0.2-0.5,0.3-0.8,0.4-1.2c0.1-1,0.2-1.9,0.9-2.7c0.6-0.6,0.4-1.4,0.8-2c0.5-0.7,1.1-1.2,1.4-1.8
						c0.3-0.7,1.1-1.2,1.4-2c0.4-0.7,0.7-1.5,1.3-2.2c0.3-0.4,0.7-0.8,1-1.1c1-0.9,1.7-2.1,2.6-3c0.8-0.8,2.1-1.1,2.8-2
						c0.4-0.5,0.9-1,0.4-2.5c-0.1-0.4-0.5-0.9-0.8-1.4c0.6,0.8-1.2-0.4-1.3-0.4c-0.6-0.2-1-0.2-1.6-0.2c-1-0.1-2.1-0.4-2.9,0
						c-1.5,0.8-2.5,2.1-3.5,3.2c-0.4,0.5-0.8,1-1.2,1.5c-0.4,0.5-0.8,1.1-1.3,1.6C267.7,301.5,267.1,302.2,266.6,302.9z"/>
				</g>
			</g>
		</g>
	</g>
	<g>
		<g>
			<g>
				<path class="st0" d="M202.2,242.3L202.2,242.3C202.3,242.3,202.3,242.3,202.2,242.3z"/>
				<path class="st0" d="M201.7,234.9L201.7,234.9C201.8,234.9,201.8,234.9,201.7,234.9z"/>
				<path class="st0" d="M195.3,237.9L195.3,237.9C195.3,237.9,195.3,237.9,195.3,237.9z"/>
				<g>
					<path class="st0" d="M195.1,238.3C195.1,238.3,195.1,238.3,195.1,238.3l0,0.3c0,0.2,0.1,0.3,0.1,0.5c0.1,0.4,0.2,0.8,0.4,1.3
						c0.4,0.9,0.9,2,0.8,3c-0.1,1.1-0.3,2.1-0.3,3.3c0,1.2-0.2,2.2-0.5,3.3c-0.3,1.1,0.1,2.3-0.4,3.3c-0.1,0.3-0.3,0.6-0.4,0.9
						c-0.1,0.1,0.3,1,0.4,1.1c0.1,0.1,0.6-0.3,0.7-0.4c0.5-0.3,1.1-0.8,1.3-1.1c0.4-0.5,0.6-0.8,0.9-1.4c0.5-1.2,0.9-2.5,1.8-3.6
						c0.7-0.9,0.6-2.1,1-3.1c0.5-1.1,1.1-2.3,1.2-3.5c0.1-1.3,0.6-2.7,0.4-4.4l0-0.3l-0.1-0.4c-0.1-0.3-0.1-0.5-0.2-0.8
						c-0.1-0.5-0.3-1-0.6-1.5c-0.5-1-1.2-1.9-2.1-2.5c-1-0.8-2.2-1.3-3.5-1.5c-0.8-0.1-1.7-0.1-2.4,0l-0.5,0.1l-0.3,0.1l-0.6,0.1
						c-0.9,0.2-1.7,0.4-2.5,0.5c-1.5,0.2-3.1-0.4-4.6,0c-0.8,0.2-1.9,0.3-2.5,1.9c-0.1,0.4-0.2,1-0.1,1.6c-0.1-0.9,1,0.9,1.1,1
						c0.5,0.5,0.9,0.7,1.4,1.1c0.9,0.7,1.8,1.5,2.8,1.7c2,0.2,4-0.2,5.9-0.5l1.1-0.2c0.2,0,0.2,0,0.2-0.1c0.1,0,0.1,0,0.1,0
						c0,0,0,0.1,0,0.1C195.1,238.2,195.1,238.1,195.1,238.3z"/>
				</g>
			</g>
		</g>
	</g>
	<g>
		<g>
			<g>
				<path class="st0" d="M239.7,279.3L239.7,279.3C239.7,279.3,239.7,279.3,239.7,279.3z"/>
				<path class="st0" d="M240.6,289.9L240.6,289.9C240.6,289.9,240.6,289.9,240.6,289.9z"/>
				<path class="st0" d="M245.7,283.9L245.7,283.9C245.7,283.9,245.7,283.9,245.7,283.9z"/>
				<g>
					<path class="st0" d="M245.8,283.6C245.9,283.6,245.8,283.6,245.8,283.6c-0.2,0-0.3,0-0.5-0.3c-0.1-0.3-0.1-1.1,0-1.7
						c0.1-0.7,0.2-1.4,0.5-2c0.6-1.3,1.3-2.6,1.7-4.1c0.4-1.5,1.1-2.7,1.8-4.1c0.7-1.3,0.7-2.9,1.4-4.3c0.2-0.4,0.4-0.7,0.6-1.2
						c0-0.1,0-0.4-0.1-0.8c-0.1-0.4-0.2-0.8-0.3-0.9c-0.1-0.1-0.6,0.6-0.7,0.7c-0.5,0.5-1.2,1.1-1.4,1.4c-0.5,0.7-0.8,0.9-1.2,1.6
						c-0.8,1.5-1.6,2.9-2.9,4.1c-1.1,1-1.4,2.4-2.2,3.5c-0.9,1.2-2,2.3-2.7,3.8l-0.6,1.3c-0.1,0.2-0.2,0.5-0.3,0.9
						c-0.1,0.3-0.3,0.6-0.3,1c-0.4,1.4-0.6,2.9-0.1,4.2c0.4,1.3,1.2,2.4,2.4,3.2c1.1,0.7,2.5,1.1,3.9,1.1c1.6,0,3.4-0.4,4.1-0.5
						c2.5-0.5,4.8-1.4,7.2-2.5c2.1-0.9,4.5-1.4,6.3-3.1c0.9-0.8,2.3-2,2-3.8c-0.1-0.4-0.5-1-0.9-1.4c0.6,0.7-1.6,0.1-1.7,0.1
						c-0.8-0.1-1.4,0.1-2,0.1c-1.3,0.1-2.5-0.2-3.5,0.1c-2.1,0.7-4,1.7-6.1,2.4c-0.9,0.3-1.8,0.6-2.7,0.9l-1.2,0.3
						c-0.2,0-0.2,0-0.2,0C245.7,283.8,245.8,283.6,245.8,283.6z"/>
				</g>
			</g>
		</g>
	</g>
	<g>
		<g>
			<g>
				<path class="st0" d="M223.3,255.1L223.3,255.1C223.2,255.1,223.2,255.1,223.3,255.1z"/>
				<path class="st0" d="M227.5,255.2L227.5,255.2C227.5,255.2,227.5,255.2,227.5,255.2z"/>
				<path class="st0" d="M229.1,248.3L229.1,248.3C229.1,248.2,229.1,248.2,229.1,248.3z"/>
				<g>
					<path class="st0" d="M227,247.8c-1-0.1-2,0.1-2.9,0.5c-1,0.5-1.8,1.2-2.7,1.3c-1,0.1-1.9,0.2-2.8,0.5c-0.9,0.3-1.8,0.3-2.7,0.3
						c-0.9,0-1.8,0.5-2.6,0.2c-0.2-0.1-0.4-0.2-0.7-0.3c-0.1-0.1-0.7,0.3-0.8,0.5c-0.1,0.1,0.2,0.6,0.3,0.7c0.3,0.4,0.7,1,1,1.2
						c0.5,0.4,0.8,0.5,1.3,0.7c1.1,0.3,2.3,0.4,3.4,0.9c0.9,0.5,1.9,0.1,2.8,0.2c1,0.2,2,0.6,2.9,0.5c1-0.1,1.9,0.3,2.8,0.3l1.3-0.1
						c0.5,0,1.1,0,1.6,0c0.6,0,1.3,0.1,1.9,0.2c1.7,0.2,3.4-0.1,5.2-0.4c1.6-0.3,3.6-0.1,5.1-1.3c0.8-0.6,1.9-1.5,1.4-3.1
						c-0.1-0.4-0.5-0.9-0.9-1.3c0.6,0.7-1.3-0.2-1.4-0.3c-0.6-0.2-1-0.2-1.5-0.4c-0.9-0.3-1.8-1-2.3-1c-1.2,0-2.3,0.3-3.6,0.4
						c-1.1,0.1-2.3,0.2-3.6,0c-0.4,0-0.8-0.1-1.2-0.2C228,247.9,227.5,247.8,227,247.8z"/>
				</g>
			</g>
		</g>
	</g>
	<g>
		<g>
			<g>
				<path class="st0" d="M300.3,355.7L300.3,355.7C300.4,355.7,300.4,355.7,300.3,355.7z"/>
				<path class="st0" d="M297.7,354.8L297.7,354.8C297.7,354.7,297.7,354.7,297.7,354.8z"/>
				<path class="st0" d="M294.8,361.2L294.8,361.2C294.8,361.2,294.8,361.2,294.8,361.2z"/>
				<g>
					<path class="st0" d="M295.9,361.9c0.5,0.2,1.2,0.3,1.8,0c0.7-0.2,1.4-0.7,2-0.6c0.6,0.1,1.3,0.3,1.9,0.1c0.7-0.1,1.3,0,1.9,0.2
						c0.6,0.1,1.3-0.4,1.9-0.1c0.2,0.1,0.3,0.2,0.5,0.3c0.1,0,0.5-0.4,0.6-0.6c0-0.1-0.2-0.6-0.3-0.7c-0.2-0.4-0.5-1-0.7-1.1
						c-0.3-0.3-0.4-0.5-0.8-0.7c-0.6-0.3-1.3-0.5-1.8-1.3c-0.4-0.6-1-0.4-1.5-0.7c-0.5-0.4-0.9-1-1.5-1.1c-0.6-0.1-1.1-0.7-1.7-0.8
						c-0.6-0.1-1.2-0.2-1.8-0.4c-0.3-0.1-0.7-0.3-1-0.5c-0.8-0.5-1.7-0.6-2.5-1c-0.8-0.4-1.2-1.4-2.1-1.5c-0.5-0.1-1.1-0.3-2,1
						c-0.2,0.3-0.5,0.9-0.7,1.4c0.4-0.9,0.1,1.1,0.1,1.2c0,0.6,0.1,0.9,0.2,1.4c0.1,0.9,0.1,1.9,0.5,2.3c0.8,0.8,1.8,1.1,2.7,1.5
						c0.8,0.3,1.7,0.6,2.5,0.9C294.9,361.4,295.4,361.7,295.9,361.9z"/>
				</g>
			</g>
		</g>
	</g>
	<g>
		<g>
			<g>
				<path class="st0" d="M255.5,343.5L255.5,343.5C255.5,343.5,255.5,343.5,255.5,343.5z"/>
				<path class="st0" d="M258.6,342.7L258.6,342.7C258.6,342.8,258.6,342.7,258.6,342.7z"/>
				<path class="st0" d="M258.1,335.6L258.1,335.6C258.1,335.6,258.1,335.6,258.1,335.6z"/>
				<g>
					<path class="st0" d="M256.2,335.7c-0.8,0.1-1.5,0.5-2,1.1c-0.6,0.6-1,1.4-1.6,1.7c-0.6,0.3-1.3,0.4-1.9,0.8
						c-0.6,0.4-1.2,0.5-1.8,0.5c-0.2,0-0.8,0.2-1.1,0.3c-0.4,0.2-0.8,0.3-1.1,0.3c-0.2,0-0.4-0.1-0.6-0.1c-0.1,0-0.4,0.5-0.4,0.7
						c0,0.1,0.3,0.5,0.4,0.6c0.3,0.3,0.8,0.8,1.1,0.9c0.5,0.2,0.7,0.3,1,0.4c0.6,0.1,1.6,0.2,2.7,0.7c0.9,0.4,1.6-0.2,2.3-0.1
						c0.8,0,1.7,0.2,2.4,0c0.7-0.3,1.6-0.1,2.2-0.3c0.6-0.2,1.2-0.5,1.7-0.6c0.3,0,0.6,0,0.9,0c0.4,0.1,0.7,0.1,1,0.2
						c0.1,0,0.1,0,0.3,0l0.6,0.1c0.4,0.1,0.8,0.1,1.2,0.2c0.7,0.1,1.5,0.3,2.2,0.4c0.8,0.1,1.6,0.1,2.2-0.2c0.7-0.3,1.6-0.7,1.5-2.3
						c0-0.4-0.2-1-0.4-1.5c0.3,0.9-0.9-0.7-1-0.8c-0.4-0.4-0.8-0.6-1.1-0.9c-0.7-0.6-1.2-1.5-1.5-1.6c-0.4-0.2-0.6-0.3-1-0.3
						l-0.5-0.1l-0.9-0.2c-1.5-0.3-3-0.3-4.4-0.2C257.8,335.6,257,335.6,256.2,335.7z"/>
				</g>
			</g>
		</g>
	</g>
	<g>
		<g>
			<g>
				<path class="st0" d="M194.9,173.2L194.9,173.2C194.9,173.2,194.9,173.2,194.9,173.2z"/>
				<path class="st0" d="M192.1,172.4L192.1,172.4L192.1,172.4z"/>
				<path class="st0" d="M189.2,178.9L189.2,178.9C189.2,178.9,189.2,178.9,189.2,178.9z"/>
				<g>
					<path class="st0" d="M190.8,179.7c0.6,0.2,1.3,0.2,2.1-0.1c0.8-0.3,1.5-0.8,2.2-0.8c0.7,0,1.4,0.1,2.2-0.1
						c0.7-0.2,1.4-0.1,2.1-0.1c0.7,0,1.3-0.6,2-0.4c0.2,0,0.4,0.1,0.6,0.2c0.1,0,0.5-0.5,0.5-0.7c0-0.1-0.3-0.5-0.4-0.6
						c-0.3-0.4-0.7-0.8-0.9-1c-0.4-0.3-0.6-0.4-0.9-0.5c-0.7-0.2-1.5-0.3-2.1-1c-0.5-0.5-1.1-0.2-1.6-0.5c-0.6-0.3-1.1-0.9-1.7-1
						c-0.6-0.1-1.2-0.6-1.8-0.7c-0.3,0-0.7-0.1-0.9-0.1c-0.2,0-0.4,0-0.6-0.1c-0.2-0.1-0.5-0.3-0.8-0.5c-0.6-0.5-1.6-1-2.7-1.6
						c-0.5-0.3-0.9-0.7-1.5-1.1c-0.6-0.4-1.3-0.8-2.1-0.8c-0.8,0-2.1,0-2.5,1.6c-0.1,0.4-0.1,1,0,1.6c-0.1-0.5,0.1-0.2,0.3,0.1
						c0.2,0.4,0.3,0.9,0.4,0.9c0.2,0.5,0.4,0.8,0.6,1.2c0.3,0.8,0.2,1.8,0.4,2.1c0.4,0.6,1.1,0.9,2,1.5c0.8,0.5,1.8,1,3,1.6
						C189.3,179.1,190.3,179.6,190.8,179.7z"/>
				</g>
			</g>
		</g>
	</g>
	<g>
		<g>
			<g>
				<path class="st0" d="M221.2,244.8L221.2,244.8C221.2,244.8,221.3,244.8,221.2,244.8z"/>
				<path class="st0" d="M222.9,242.1L222.9,242.1C223,242.2,223,242.2,222.9,242.1z"/>
				<path class="st0" d="M217.4,237.7L217.4,237.7C217.4,237.7,217.4,237.7,217.4,237.7z"/>
				<g>
					<path class="st0" d="M216.3,238.8c-0.4,0.5-0.6,1.2-0.6,2c0,0.8,0.3,1.7,0,2.3c-0.3,0.7-0.6,1.3-0.7,2
						c-0.1,0.7-0.4,1.3-0.8,1.9c-0.3,0.6-0.1,1.4-0.5,2c-0.1,0.1-0.3,0.3-0.4,0.4c-0.1,0.1,0.2,0.6,0.3,0.8c0.1,0.1,0.6,0,0.7,0
						c0.5-0.1,1.1-0.2,1.3-0.3c0.5-0.2,0.7-0.3,0.9-0.6c0.5-0.6,1-1.2,1.9-1.7c0.7-0.3,0.7-1,1.2-1.5c0.5-0.5,1.3-0.8,1.5-1.4
						c0.3-0.6,1-1,1.3-1.6c0.3-0.6,0.5-1.3,0.9-1.8c0.2-0.3,0.5-0.6,0.7-0.9c0.7-0.7,1.2-1.6,1.8-2.3c0.6-0.6,1.7-0.7,2.1-1.5
						c0.2-0.4,0.6-0.8,0-2.2c-0.2-0.3-0.6-0.9-0.9-1.3c0.6,0.7-1.1-0.4-1.2-0.4c-0.6-0.2-0.9-0.2-1.4-0.3c-0.9-0.2-1.9-0.5-2.5-0.2
						c-1.2,0.6-1.9,1.6-2.7,2.6c-0.7,0.8-1.2,1.7-1.8,2.6C217.2,237.8,216.7,238.3,216.3,238.8z"/>
				</g>
			</g>
		</g>
	</g>
	<g>
		<g>
			<g>
				<path class="st0" d="M263,353.5L263,353.5C263,353.5,263,353.5,263,353.5z"/>
				<path class="st0" d="M264.9,351.1L264.9,351.1C265,351.1,265,351.1,264.9,351.1z"/>
				<path class="st0" d="M259.5,346.6L259.5,346.6C259.5,346.5,259.5,346.5,259.5,346.6z"/>
				<g>
					<path class="st0" d="M258.6,347.2c-0.3,0.4-0.5,0.9-0.5,1.5c0,0.7,0.2,1.5-0.1,2c-0.2,0.3-0.3,0.5-0.5,0.7
						c-0.1,0.2-0.3,0.5-0.4,0.8c-0.2,0.6-0.7,1.1-1.2,1.6c-0.5,0.6-0.3,1.5-0.8,2.1c-0.1,0.2-0.3,0.4-0.4,0.5
						c-0.1,0.1,0.3,0.7,0.5,0.8c0.1,0,0.6-0.2,0.7-0.2c0.4-0.2,1-0.3,1.2-0.4c0.4-0.2,0.6-0.2,0.8-0.4c0.5-0.4,0.9-0.8,1.8-0.8
						c0.7,0,0.8-0.7,1.4-1c0.2-0.1,0.3-0.2,0.5-0.3c0.2-0.1,0.3-0.1,0.5-0.2c0.3-0.1,0.6-0.3,0.8-0.6c0.4-0.5,1.1-0.8,1.5-1.4
						c0.4-0.6,0.6-1.3,1-1.9c0.2-0.3,0.5-0.7,0.8-1c0.7-0.9,1.1-2,1.5-3c0.4-0.9,1.4-1.8,1.4-3c0-0.6,0-1.5-1.4-2
						c-0.4-0.1-1-0.2-1.6-0.2c0.9,0.1-1.1,0.4-1.2,0.4c-0.6,0.2-0.8,0.3-1.2,0.5c-0.8,0.3-1.8,0.4-2.1,0.6c-0.6,0.6-0.8,1.3-1.1,2
						c-0.3,0.6-0.6,1.2-1,1.8C259.4,346.6,259,346.9,258.6,347.2z"/>
				</g>
			</g>
		</g>
	</g>
	<g>
		<g>
			<g>
				<path class="st0" d="M264.3,377.7L264.3,377.7C264.3,377.7,264.3,377.7,264.3,377.7z"/>
				<path class="st0" d="M266.7,377.9L266.7,377.9C266.7,377.9,266.7,377.9,266.7,377.9z"/>
				<path class="st0" d="M268,370.9L268,370.9C268,370.9,268,370.9,268,370.9z"/>
				<g>
					<path class="st0" d="M266.7,370.5c-0.6-0.1-1.1,0-1.7,0.5c-0.6,0.4-1.1,1.1-1.6,1.1c-0.6,0.1-1.1,0.1-1.7,0.3
						c-0.5,0.3-1.1,0.3-1.6,0.2c-0.5,0-1,0.6-1.6,0.4c-0.1-0.1-0.3-0.2-0.4-0.2c-0.1,0-0.4,0.4-0.4,0.6c0,0.1,0.2,0.5,0.3,0.7
						c0.2,0.4,0.5,0.9,0.7,1.1c0.3,0.3,0.5,0.5,0.8,0.6c0.6,0.2,1.2,0.3,1.9,0.9c0.5,0.5,1,0.1,1.5,0.4c0.5,0.2,1,0.7,1.5,0.7
						c0.5,0,1,0.4,1.6,0.4c0.5,0,1-0.2,1.5-0.1c0.3,0,0.6,0.1,0.8,0.2c0.7,0.3,1.4,0.3,2,0.5c0.6,0.2,0.8,1.1,1.4,1.1
						c0.4,0,0.7,0.2,1.7-1c0.2-0.3,0.6-0.8,0.9-1.3c-0.5,0.8,0.1-1.1,0.1-1.2c0.1-0.6,0-0.9,0-1.4c-0.1-0.8,0-1.9-0.4-2.3
						c-0.8-0.8-1.9-1.1-3-1.3c-0.9-0.2-1.8-0.3-2.7-0.4C267.8,370.8,267.3,370.6,266.7,370.5z"/>
				</g>
			</g>
		</g>
	</g>
	<g>
		<g>
			<g>
				<path class="st0" d="M174.7,194.3L174.7,194.3C174.7,194.3,174.7,194.3,174.7,194.3z"/>
				<path class="st0" d="M177.4,195.4L177.4,195.4C177.3,195.4,177.3,195.4,177.4,195.4z"/>
				<path class="st0" d="M180.6,189.1L180.6,189.1C180.7,189.1,180.6,189.1,180.6,189.1z"/>
				<g>
					<path class="st0" d="M179.5,188.3c-0.5-0.3-1.2-0.3-1.9-0.1c-0.7,0.2-1.5,0.6-2.1,0.5c-0.6-0.1-1.2-0.4-1.9-0.3
						c-0.7,0.1-1.3-0.1-1.9-0.4c-0.6-0.2-1.3,0.2-1.8-0.2c-0.1-0.1-0.3-0.3-0.4-0.4c-0.1-0.1-0.6,0.3-0.7,0.4
						c-0.1,0.1,0.1,0.6,0.1,0.7c0.1,0.4,0.3,1,0.4,1.2c0.2,0.4,0.4,0.6,0.7,0.8c0.6,0.4,1.3,0.7,1.7,1.5c0.4,0.7,1,0.5,1.5,0.9
						c0.5,0.4,0.9,1.1,1.5,1.2c0.6,0.2,1.1,0.8,1.7,0.9c0.6,0.2,1.2,0.2,1.8,0.5c0.3,0.1,0.6,0.3,0.9,0.5c0.7,0.5,1.6,0.8,2.4,1.2
						c0.7,0.4,0.9,1.4,1.7,1.7c0.4,0.1,0.9,0.4,2.1-0.6c0.3-0.2,0.7-0.7,1.1-1.2c-0.6,0.7,0.2-1.1,0.2-1.2c0.1-0.6,0.1-0.9,0.1-1.4
						c0-0.9,0.2-2-0.2-2.4c-0.7-1-1.8-1.5-2.8-2c-0.9-0.4-1.8-0.7-2.6-1.2C180.5,188.9,180,188.5,179.5,188.3z"/>
				</g>
			</g>
		</g>
	</g>
	<g>
		<g>
			<g>
				<path class="st0" d="M293.1,351.6L293.1,351.6C293.1,351.6,293.1,351.6,293.1,351.6z"/>
				<path class="st0" d="M295.7,348.5L295.7,348.5C295.7,348.5,295.7,348.5,295.7,348.5z"/>
				<path class="st0" d="M290.9,343.2L290.9,343.2C290.9,343.2,290.9,343.2,290.9,343.2z"/>
				<g>
					<path class="st0" d="M289.5,344.4c-0.6,0.6-0.9,1.4-1.1,2.3c0,0.8,0.1,1.7-0.4,2.2c-0.4,0.5-0.9,0.9-1.3,1.5
						c-0.4,0.6-1,0.8-1.7,0.9c-0.6,0.1-1.2,0.8-1.9,0.6c-0.2-0.1-0.4-0.2-0.6-0.2c-0.1,0-0.6,0.4-0.7,0.6c0,0.1,0.2,0.6,0.3,0.7
						c0.3,0.4,0.7,0.9,1,1.1c0.5,0.3,0.7,0.4,1.3,0.5c1.1,0.1,2.1-0.1,3.5,0c1.1,0.1,1.8-0.8,2.7-1.2c1-0.5,2-0.9,2.7-1.7
						c0.7-0.9,1.4-1.3,1.9-2c0.5-0.7,0.8-1.4,1.4-2c0.3-0.3,0.7-0.7,1-0.9c0.9-0.7,1.7-1.6,2.6-2.2c0.9-0.6,2.1-0.5,2.8-1.1
						c0.4-0.4,1-0.7,0.8-2.3c0-0.4-0.2-1-0.5-1.5c0.4,0.9-1-0.7-1.1-0.7c-0.5-0.4-0.9-0.4-1.4-0.6c-0.9-0.4-2-0.9-2.7-0.7
						c-1.6,0.4-2.8,1.5-4,2.5c-1,0.9-1.9,1.9-2.8,2.8C290.7,343.3,290,343.8,289.5,344.4z"/>
				</g>
			</g>
		</g>
	</g>
	<g>
		<g>
			<g>
				<path class="st0" d="M191.5,169.4L191.5,169.4C191.5,169.4,191.5,169.5,191.5,169.4z"/>
				<path class="st0" d="M194.1,167.9L194.1,167.9C194.1,167.9,194.1,167.9,194.1,167.9z"/>
				<path class="st0" d="M190.9,161.6L190.9,161.6C190.9,161.5,190.9,161.5,190.9,161.6z"/>
				<g>
					<path class="st0" d="M189.6,162c-0.5,0.3-1,0.8-1.2,1.4c-0.3,0.7-0.4,1.6-0.9,2c-0.5,0.4-1,0.8-1.4,1.4c-0.4,0.6-0.9,1-1.5,1.3
						c-0.5,0.4-0.6,1.2-1.3,1.5c-0.2,0.1-0.4,0.1-0.6,0.2c-0.1,0-0.1,0.6,0,0.8c0,0.1,0.5,0.3,0.7,0.3c0.4,0.1,1,0.3,1.3,0.3
						c0.5,0,0.7,0,1-0.1c0.7-0.3,1.3-0.6,2.3-0.5c0.8,0.1,1-0.5,1.6-0.7c0.7-0.1,1.4-0.1,1.9-0.5c0.5-0.4,1.3-0.4,1.8-0.8
						c0.5-0.4,1-0.9,1.5-1.2c0.3-0.2,0.7-0.4,1-0.5c0.9-0.4,1.6-1,2.5-1.4c0.8-0.4,1.9-0.1,2.5-0.8c0.3-0.3,0.9-0.7,0.5-2.2
						c-0.1-0.4-0.3-1-0.6-1.5c0.4,0.8-0.9-0.7-1-0.7c-0.5-0.4-0.8-0.5-1.2-0.7c-0.8-0.4-1.6-1.1-2.2-1c-1.2,0.1-2.1,0.7-3,1.3
						c-0.8,0.5-1.6,1-2.4,1.5C190.7,161.6,190.1,161.7,189.6,162z"/>
				</g>
			</g>
		</g>
	</g>
	<g>
		<g>
			<g>
				<path class="st0" d="M271.9,387.6L271.9,387.6C271.9,387.7,271.9,387.7,271.9,387.6z"/>
				<path class="st0" d="M274.7,385.1L274.7,385.1C274.7,385.1,274.7,385.1,274.7,385.1z"/>
				<path class="st0" d="M269.6,380.2L269.6,380.2C269.6,380.2,269.6,380.2,269.6,380.2z"/>
				<g>
					<path class="st0" d="M268.7,380.7c-0.3,0.3-0.5,0.7-0.6,1.3c-0.1,0.6-0.1,1.4-0.5,1.8c-0.4,0.4-0.9,0.7-1.3,1.2
						c-0.4,0.5-0.9,0.8-1.5,1c-0.5,0.2-0.8,1-1.5,1c-0.2,0-0.4,0-0.5,0c-0.1,0-0.3,0.6-0.3,0.8c0,0.1,0.4,0.4,0.5,0.5
						c0.4,0.3,0.9,0.6,1.1,0.7c0.5,0.2,0.7,0.2,1,0.2c0.8-0.1,1.5-0.3,2.5-0.1c0.8,0.1,1.2-0.5,1.9-0.6c0.7-0.2,1.6-0.2,2.2-0.7
						c0.6-0.5,1.5-0.8,2.1-1.4c0.5-0.6,1-1.4,1.5-2.1c0.3-0.4,0.6-0.8,0.9-1.2c0.4-0.5,0.7-1.1,0.9-1.7c0.1-0.3,0.2-0.6,0.3-0.9
						l0.2-0.4l0.1-0.2l0-0.1l0,0c0,0,0,0,0.1,0l0,0c0,0,0,0-0.1,0c-0.1-0.1-0.2-0.1-0.3-0.2c-0.2-0.1-0.3-0.2-0.5-0.3
						c-0.1,0-0.2-0.2-0.2-0.2c0,0-0.1-0.1,0,0l0,0.1c0,0.1,0.1,0.1,0.1,0.2l0.1,0.3c0.1,0.1,0.1,0.3,0.2,0.4l0.2,0.4
						c0,0.1,0.1,0.4,0.1,0.3c0,0,0,0,0,0c0-0.1,0.3-0.2,0.6-0.5c0.3-0.3,0.8-0.9,0.7-1.7c0-0.4-0.3-1-0.5-1.5c0.2,0.4-0.1,0.3-0.4,0
						c-0.3-0.3-0.6-0.7-0.6-0.8c-0.4-0.5-0.6-0.6-1-1c-0.3-0.3-0.7-0.6-1.2-0.8c-0.5-0.2-1.2-0.2-1.8,0.1c-0.6,0.3-1.2,0.8-1.5,1.3
						c-0.2,0.3-0.3,0.5-0.5,0.7c-0.1,0.3-0.2,0.5-0.3,0.7l-0.2,0.4l-0.1,0.3c-0.1,0.2-0.1,0.4-0.2,0.5c-0.2,0.6-0.5,1.2-0.9,1.7
						C269.4,380.2,269,380.4,268.7,380.7z"/>
				</g>
			</g>
		</g>
	</g>
	<g>
		<g>
			<g>
				<path class="st0" d="M181.5,206.7L181.5,206.7C181.5,206.7,181.5,206.7,181.5,206.7z"/>
				<path class="st0" d="M184.4,203.7L184.4,203.7C184.4,203.8,184.4,203.7,184.4,203.7z"/>
				<path class="st0" d="M178.6,199.6L178.6,199.6C178.6,199.6,178.6,199.6,178.6,199.6z"/>
				<g>
					<path class="st0" d="M178,200c-0.2,0.2-0.3,0.5-0.3,1.1c0,0.6,0,1.4-0.4,1.8c-0.4,0.4-0.9,0.7-1.3,1.2
						c-0.4,0.6-0.9,0.8-1.5,1.1c-0.6,0.3-0.8,1.1-1.4,1.3c-0.2,0-0.4,0.1-0.6,0.1c-0.1,0-0.2,0.6-0.1,0.8c0,0.1,0.5,0.3,0.7,0.4
						c0.4,0.2,1,0.4,1.2,0.4c0.5,0.1,0.7,0.1,1,0c0.7-0.2,1.4-0.5,2.3-0.3c0.8,0.1,1.1-0.5,1.8-0.6c0.7-0.2,1.6-0.2,2.2-0.7
						c0.6-0.5,1.6-0.9,2.2-1.7c0.3-0.4,0.5-0.8,0.7-1.2c0.2-0.3,0.3-0.6,0.5-1c0.1-0.2,0.3-0.4,0.5-0.6c0.6-0.5,1.1-1.3,1.8-1.9
						c0.6-0.6,1.8-0.7,2.3-1.5c0.3-0.5,0.7-1-0.1-2.4c-0.2-0.3-0.7-0.8-1.1-1.2c0.7,0.6-1.1-0.3-1.2-0.3c-0.6-0.2-0.9-0.2-1.3-0.3
						c-0.8-0.2-1.8-0.6-2.3-0.4c-1.1,0.4-1.8,1.2-2.6,2.1c-0.7,0.8-1.3,1.6-2.1,2.7c-0.1,0.2-0.3,0.4-0.3,0.5l-0.2,0.2
						C178.2,199.8,178.1,199.9,178,200z"/>
				</g>
			</g>
		</g>
	</g>
	<g>
		<g>
			<g>
				<path class="st0" d="M180.1,146.1L180.1,146.1C180.1,146.1,180.1,146.1,180.1,146.1z"/>
				<path class="st0" d="M179.6,146.5L179.6,146.5C179.6,146.4,179.6,146.5,179.6,146.5z"/>
				<path class="st0" d="M186.7,150L186.7,150C186.7,150,186.7,150,186.7,150z"/>
				<g>
					<path class="st0" d="M189,147.8c-0.2-0.5-0.5-0.9-0.8-1.4c-0.1-0.2-0.3-0.5-0.4-0.7l-0.2-0.3c-0.1-0.1-0.1-0.3-0.1-0.2
						c0,0.2-0.4,0.3-1-0.1c-0.2-0.1-0.5-0.3-0.7-0.5c-0.4-0.4-0.8-1-1.3-1.6l-0.1-0.1c0-0.1,0-0.1,0-0.2l-0.1-0.3
						c-0.2-0.1-0.3-0.3-0.5-0.4c-0.3-0.2-0.7-0.5-1.1-0.6c-0.4-0.2-0.8-0.3-1.2-0.5l-0.6-0.2l-0.4-0.1c-0.6-0.2-1.2-0.4-1.7-0.6
						c-1.1-0.3-2.3,0.1-3.4-0.3c-0.3-0.1-0.6-0.3-0.8-0.4c-0.1-0.1-0.9,0.3-1.1,0.5c-0.1,0.1,0.3,0.6,0.4,0.7c0.3,0.4,0.9,1,1.1,1.2
						c0.5,0.4,0.8,0.6,1.4,0.8c1.1,0.4,2.3,0.9,3,1.9c0.2,0.4,0.3,0.5,0.5,0.6c0.2,0.1,0.4,0.2,0.4,0.5c0,0.3-0.1,0.5-0.2,0.6
						c0,0,0,0,0.1,0c0.1,0,0.1,0,0.1,0c0,0,0,0,0,0l-0.2,0.1c-0.3,0.1-0.5,0.1-0.5,0.1c0,0,0,0.1,0,0.1c0,0.1,0,0.2-0.1,0.3
						c0,0-0.1,0.1-0.2,0.1c0,0,0,0-0.1,0l-0.4,0.3c-1.5,0.9-2.8,2.1-4.2,3c-1.3,0.9-2.9,1.2-4.1,2.3c-0.6,0.6-1.5,1.3-1.1,2.9
						c0.1,0.4,0.4,0.9,0.8,1.4c-0.6-0.8,1.3,0.3,1.5,0.3c0.7,0.2,1.2,0.1,1.7,0.2c1.1,0.1,2.3,0.4,3.1,0.1c1.7-0.7,3.1-1.9,4.6-3
						c1.4-1,1.9-1.5,4.9-3.6c1.1-0.8,2.3-1.5,3.5-2.3C189.2,148.2,189.1,148,189,147.8z"/>
				</g>
			</g>
		</g>
	</g>
	<path class="st1" d="M270.7,404.1"/>
	<path class="st1" d="M270.6,401.4"/>
	<path class="st1" d="M270,394.9"/>
	<path class="st1" d="M271.5,395.7"/>
	<path class="st1" d="M271.4,395"/>
</g>
</svg>
