<?xml version="1.0" encoding="utf-8"?>
<!-- Generator: Adobe Illustrator 21.1.0, SVG Export Plug-In . SVG Version: 6.00 Build 0)  -->
<svg version="1.1" id="Layer_1" xmlns="http://www.w3.org/2000/svg" xmlns:xlink="http://www.w3.org/1999/xlink" x="0px" y="0px"
	 viewBox="0 0 500 500" style="enable-background:new 0 0 500 500;" xml:space="preserve">
<style type="text/css">
	.st0{fill:#231F20;}
</style>
<g>
	<g>
		<g>
			<path class="st0" d="M180.6,161.4l-0.4,0.1C180.4,161.5,180.5,161.6,180.6,161.4z"/>
			<path class="st0" d="M237.3,144.2l0.1,0.4C237.4,144.4,237.4,144.3,237.3,144.2z"/>
			<path class="st0" d="M234.8,107.1l0.3-0.2C234.9,107,234.9,107,234.8,107.1z"/>
			<g>
				<path class="st0" d="M213.1,114.3c-4.6,1.7-8.9,3.5-13.1,5.4c-4.2,1.9-8.3,3.9-12.4,6c-4.2,2.1-8.5,4.3-12.9,6
					c-4.4,1.7-9.1,2.9-13.8,3.1c-9.9,0.3-19.8-1.6-30.2-3.2c-2.6-0.4-5.2-0.9-7.8-1.7c-2.7-0.7-5.3-1.5-7.9-2.4
					c-5.3-1.7-10.5-3.7-16-5.5c-5.3-1.8-10.8-2.8-16.4-3.6c-5.6-0.8-11.2-1.5-16.8-2.9c-1.5-0.4-3-0.8-4.5-1.2l-1.1-0.3l-1.2-0.3
					c-0.8-0.2-1.6-0.3-2.5-0.5c-0.8-0.1-3.2,0.3-5.5,1c-0.3,0.1-0.6,0.2-0.8,0.3c0,0-0.1,0-0.1,0l0,0l0,0l0,0.1l0,0.2
					c0,0.4,0,0.8,0,1.3c0,0.4,0,0.7,0,1c0,0.3,0,0.6-0.1,1c0,0.5-0.1,1.1-0.2,1.5c-0.1,0.5-0.2,0.7-0.3,1.1
					c-0.2,0.5-0.4,0.8-0.5,0.9c-0.1,0.1,0,0,0.2-0.1c0.3-0.1,0.6-0.2,1.1-0.2c0.8-0.1,2,0,2.7,0.2c0.7,0.1,0,0-1.3-0.1
					c-0.3,0-0.6,0-0.9,0c-0.3,0-0.6,0-0.9,0c-0.6,0.1-0.9,0.2-1,0.3c-0.1,0,0.2-0.1,0.4-0.7c0-0.1,0.1-0.3,0.2-0.5l0.1-0.6
					c0.1-0.3,0.1-0.4,0.1-0.8c0-0.1,0-0.1,0-0.1l0,0l0,0.1c0.1,0.2,0.1,0.3,0.3,0.4c0.2,0.1,0.4,0.2,0.6,0.3c2,1,4.4,2.2,6.7,3.4
					c2.2,1.2,4.3,2.4,5.7,2.9c5.7,2.5,8.2,3.8,14.1,5.7c12,4,23.4,8.8,34.6,16c1.1,0.7,2.3,1.4,3.5,2c1.2,0.6,2.4,1.2,3.7,1.7
					c2.6,1.1,5.3,1.9,8.1,2.7c5.5,1.5,11.2,2.6,16.8,4.1c6.1,1.6,12.4,3,18.9,3.6c6.5,0.7,13,0.7,19.3-0.4
					c6.7-1.1,13.4-2.2,19.9-3.6c6.5-1.4,12.9-3.1,19-5.6c11.8-4.9,22.2-10.6,32.6-14.5c3-1.1,6.1-2.2,9.1-3c3-0.9,6-1.5,8.9-2
					c1.8-0.3,3.8-0.6,5.7-0.9c1-0.2,1.9-0.3,2.9-0.4c1-0.1,1.9-0.3,2.9-0.4c3.8-0.5,7.6-0.8,11.2-0.9c3.7-0.1,7.2,0,10.7,0.4
					c3.5,0.4,6.9,1.1,10.4,2.2c0.8,0.3,1.6,0.5,2.5,0.8l0.3,0.1l0.2,0.1c0.1,0,0.1,0,0.1,0l0.1,0.1c0,0,0.1,0,0.1,0.1
					c0,0,0,0,0.1,0.1c1.7,0.9,3.3,1.8,5,2.7c3.3,1.9,6.4,3.9,9.5,5.9c6.2,4,12.2,8.1,18.4,11.3c1.6,0.9,3.3,1.9,5.1,2.8
					c1.7,1,3.4,1.9,5.2,2.7c3.5,1.6,6.8,2.3,11,2c2.1-0.2,5.1-1.3,7.7-2.6c-2.1,1.1-1.7-1-1.6-4c0.2-2.9,0.2-6.6,0.1-7
					c-1-5-4.1-9.1-6.6-13.3c-5.1-8.2-9.7-16.5-17.5-22c-4.1-2.8-8.4-5.4-12.7-7.7c-2.2-1.2-4.3-2.3-6.5-3.3l-1.7-0.8l-2.6-1.2
					l-2.7-0.9l-1.9-0.6c-5.1-1.6-10.8-2.9-16.4-3.6c-5.7-0.8-11.3-1-16.9-0.9c-9.4,0.2-18.3,1.5-26.9,3.3
					c-9.1,1.9-17.6,4.7-25.7,7.6C231.3,107.7,221.9,111.1,213.1,114.3z"/>
			</g>
		</g>
	</g>
</g>
<g>
	<g>
		<g>
			<path class="st0" d="M95.2,336.3l-0.3,0C95.1,336.3,95.2,336.4,95.2,336.3z"/>
			<path class="st0" d="M136,335l0,0.4C136.1,335.3,136,335.1,136,335z"/>
			<path class="st0" d="M132.1,299.3l0.1-0.1C132.2,299.2,132.1,299.2,132.1,299.3z"/>
			<g>
				<path class="st0" d="M121.2,300.6l-0.8,0.1l-0.8,0.1c-0.5,0.1-1,0.2-1.5,0.2c-0.5,0.1-1,0.2-1.5,0.3c-0.2,0.1-0.6,0.1-0.9,0.1
					l-0.9,0.2c-1.3,0.2-2.5,0.6-3.8,0.9c-1.3,0.3-2.7,0.7-4,1.1c-5.7,1.7-12,4.1-18.2,3.2l-2.4-0.4l-2.4-0.5l-4.9-0.9
					c-3.3-0.7-6.5-1.2-10-1.5c-6.9-0.5-13.2-2.8-19.6-5.3c-6.2-2.4-13.5-1.7-19.5-5.1c-1.6-0.9-3.1-2-4.7-3
					c-0.8-0.5-5.8,0.2-6.9,0.9c-0.5,0.3,1.3,3.4,1.8,4.2c1.7,2.7,4.3,6.4,5.8,7.7c3.1,2.8,4.5,4.1,8,5.9c7.3,3.7,14.5,6.9,21.4,12.4
					c5.5,4.5,12.8,4.6,19.1,7.5c6.9,3,13.9,6.7,21.7,7.7c2.1,0.2,4.2,0.5,6.3,0.9l6.4,1l1.6,0.3c0.6,0.1,1.1,0.1,1.7,0.2
					c1.1,0.1,2.2,0.2,3.4,0.2l1.7,0.1l0.8,0c0.3,0,0.6,0,0.9,0c1.3-0.1,2.5-0.1,3.8-0.3c4.9-0.7,9.4-2,13.7-3.4
					c4.2-1.5,8.2-3.1,12.1-4.6c4.5-1.8,8.8-3.5,13-5.1c10.6-4.1,19.6-9.5,29-12.8c4.2-1.5,8.6-1.9,12.7-2.2
					c4.2-0.3,8.1-0.4,11.9-1.5c2-0.6,4.4-1,6.8-2.1c2.4-1.1,4.7-3,6.9-6.6c1.1-1.8,1.7-5,1.9-7.8c-0.2,2.3-1.4,1-2.8-1
					c-1.3-2-2.9-4.6-3.1-4.8c-1.3-1.4-2.7-2.4-4.2-3.2c-1.5-0.8-3-1.6-4.5-2.4c-2.9-1.6-5.9-3.4-9-4.8c-1.5-0.7-3.1-1.2-4.7-1.6
					c-1.6-0.3-3.2-0.5-4.8-0.4c-6.8,0.4-13.3,2-19.3,4.2c-6.1,2.1-11.7,4.7-17.2,7.3c-9.3,4.3-17.8,9.1-25.9,12
					C130.3,299.4,125.4,300.2,121.2,300.6z"/>
			</g>
		</g>
	</g>
</g>
<g>
	<g>
		<g>
			<path class="st0" d="M414.9,128.9l0-0.3C414.9,128.8,414.8,128.8,414.9,128.9z"/>
			<path class="st0" d="M433,161.4l-0.3,0.3C432.9,161.6,433,161.5,433,161.4z"/>
			<path class="st0" d="M449.1,134.6L449.1,134.6C449.1,134.6,449.1,134.6,449.1,134.6z"/>
			<g>
				<path class="st0" d="M450.4,128.5c-0.9-0.7-1.6-1.2-2.2-1.6c-0.6-0.4-1.1-0.6-1.3-0.5c-0.1,0-0.1,0-0.2,0.1c0,0,0.1-0.1-0.3,0.3
					l-0.6,0.6c-0.4,0.4-0.8,0.8-1.2,1.2l0,0l0,0c-15.7,15.4-4.3,4.3-7.8,7.7l0,0l0,0l0,0l0-0.1l0.1-0.1c0.1-0.1,0.1-0.1,0.2-0.2
					c0.1,0,0.1-0.1,0.2-0.1l0.3-0.2c0.2-0.2,0.5-0.3,0.7-0.4c0.1,0,0.3-0.1,0.4-0.2c0.2-0.1,0.3-0.1,0.5-0.2c0.3-0.1,0.6-0.2,1-0.3
					c0.4-0.1,0.8-0.2,1.2-0.3c0.8-0.1,1.7-0.3,2.5-0.3c0.4,0,0.9-0.1,1.3-0.1l0.6,0l0.3,0c0.1,0,0.2,0,0.1,0c-0.3,0-0.6-0.1-0.9-0.2
					c-0.3-0.1-0.5-0.3-0.8-0.5c-1-0.8-1.5-2-1.4-2.7c0.1-0.3,0.2-0.7,0.3-0.8c0,0,0-0.1,0-0.1c0,0,0,0,0,0c-0.2-0.1-0.3-0.3-0.5-0.5
					c-0.2-0.2-0.3-0.3-0.4-0.5l-0.1-0.1l-0.1-0.1l0,0l0,0l0,0c2.1,2.4,0.6,0.7,1.1,1.2l0,0l0.1-0.1c0.1-0.1,0.2-0.2,0.2-0.3
					c0.6-0.7,1.4-1.5,2.5-2.7c1.1-1.2,2.7-2.1,4.6-2.7c0.9-0.3,2-0.6,3-0.9c1.1-0.3,2.2-0.6,3.3-0.9c3.4-0.9,6.4-4.9,10.8-5.1
					c1.2-0.1,2.5,0.1,3.8,0.1c0.6,0,2.7-3.2,2.7-4.3c0-0.5-2.5-2-3.1-2.4c-2.2-1.3-5.1-3.1-6.5-3.5c-2.7-0.9-3.9-1.3-6.3-1.1
					c-2.6,0.3-5.1,0.5-7.7,0.7c-2.3,0.1-4.6-0.3-7.6-1c-4.9-1.1-9.7,2.5-15.3,5.6l-0.6,0.3l-0.7,0.5c-0.5,0.3-1,0.7-1.4,1
					c-0.9,0.7-1.7,1.4-2.5,2.1c-1.5,1.4-2.9,2.9-4,4.5c-2.3,3.1-3.8,6.6-4.3,10.5c-0.1,1.1-0.2,2.2-0.3,3.3l-0.1,1.8l0,0.9l0,1
					c0,0.7,0.1,1.3,0.1,2c0.1,0.7,0.2,1.5,0.3,2.2c0.1,0.4,0.1,0.7,0.2,1.1l0.3,1.2l0.4,1.2c0.1,0.4,0.2,0.8,0.5,1.3
					c0.4,0.9,0.8,1.8,1.3,2.7c0.2,0.4,0.5,0.9,0.8,1.4c0.3,0.5,0.6,0.9,1,1.4c0.3,0.4,0.7,0.9,1,1.3l0.5,0.6
					c0.4,0.4,0.7,0.8,1.1,1.2c1.4,1.4,2.6,2.5,3.8,3.2c1.1,0.7,2.1,1.3,2.8,1.7l0.5,0.3l0.2,0.1l0.7,0.5c1,0.7,2.1,1.4,3.2,1.9
					c4.4,2.3,9.3,3.5,14,3.8c5.5,0.4,10.9-0.5,16-2.5c1.6-0.7,3.2-1.4,4.6-2.4c0.7-0.5,1.5-0.9,2.2-1.5c0.7-0.6,1.4-1.1,2-1.7
					c0.7-0.6,1.3-1.3,1.9-1.9c0.6-0.7,1.2-1.3,1.7-2.1c1.1-1.5,2.1-3,2.9-4.6c0.4-0.8,0.8-1.6,1.1-2.4c0.3-0.8,0.6-1.7,0.9-2.5
					l0.2-0.6l0.1-0.3l0-0.2l0-0.1l0.1-0.5l0.3-1.1c0.4-1.4,0.8-2.9,1.4-4.3c1-2.6,2.8-4.9,4.5-7.3c0.8-1.2,1.7-2.4,2.3-3.8
					c0.3-0.7,0.6-1.3,0.9-2.1c0.3-0.9,0.5-1.8,0.6-2.6c0.1-0.8,0.2-1.6,0.2-2.2c0-0.6-0.2-1.1-0.5-1.7c-0.7-1.1-2.2-2.5-4.8-5.3
					c-1.3-1.3-3.8-3.4-6.2-5c1.9,1.4,0.5,1.2-1.6,0.9c-2-0.3-4.8-0.7-5-0.7c-3.2,0.2-5.2,1.7-7.6,2.7c-2.3,1.1-4.8,1.8-6.9,2.3
					c-2.2,0.8-4.1,1.7-5.2,3.1c-2.3,3-3.9,6.3-5.2,9.8c-0.7,1.8-1.2,3.6-1.8,5.4l-0.4,1.4l-0.2,0.7l0,0.2l0,0l0,0l0,0
					c-0.8-0.2,7,2,3.7,1.1l0,0l0,0l0.1,0c0.1,0,0.2,0.1,0.3,0.1c0.1,0,0.1,0,0.1,0l0,0c0.2,0.1-0.1-0.1-0.2-0.2
					c-0.1-0.1-0.2-0.2-0.3-0.3c-0.1-0.1-0.1-0.2-0.2-0.3c-0.1-0.1-0.1-0.2,0-0.1c0,0.1,0.1,0.4,0,0.8c0,0.5-0.1,0.8-0.2,0.9
					c0,0,0,0,0,0c0-0.1,0.1-0.1,0.1-0.2l0,0l0,0l3.4-4.3l0,0l-0.1-0.1l-0.7-0.7C451.2,129.2,450.8,128.9,450.4,128.5z"/>
			</g>
		</g>
	</g>
</g>
<g>
	<g>
		<g>
			<path class="st0" d="M78.4,241.8l-0.1,0.2C78.3,241.9,78.4,241.9,78.4,241.8z"/>
			<path class="st0" d="M101.7,211l0.3,0.1C101.9,211,101.8,211,101.7,211z"/>
			<path class="st0" d="M71.5,205.9L71.5,205.9C71.5,205.9,71.5,205.9,71.5,205.9z"/>
			<g>
				<path class="st0" d="M70.2,206.2c0.6-0.9-1.9,2.4-3.3,4.6c-1.5,2.4-2.9,5-4.1,7.6c-2.4,5.6-4.3,11.7-8,16.3
					c-3.9,5-8.2,9.5-11.6,15c-3.4,5.4-7.8,9.8-12.3,14.3c-4.3,4.3-6.8,10.3-11.8,13.8c-1.3,0.9-2.8,1.7-4.1,2.4
					c-0.2,0.1-0.4,0.4-0.6,0.8c-0.2,0.4-0.5,1-0.7,1.5c-0.5,1.1-0.8,2.1-0.8,2.6c0,0.2,0.6,0.5,1.4,0.6c0.8,0.2,1.7,0.1,2.1,0.1
					c2.6-0.1,6.6-0.8,8.3-1.6c3.5-1.5,5-2.2,7.9-4.5c5.8-4.7,11.2-9.6,18-13.3c5.6-3,8.7-8.5,13.4-12.4c5.1-4.2,10.8-7.9,14.9-12.9
					c4.4-5.4,10.2-9.7,14.5-15.4l2.6-3.5c1-1.3,1.9-2.8,2.9-4.1c0.5-0.7,0.8-1.4,1.2-2.1c0.3-0.7,0.7-1.4,1-2.2
					c0.5-1.5,1.1-2.8,1.6-4.3c-0.5-2.7-0.8-5.3-1.7-7.9c-1.1-2.6-2.4-5.2-3.7-7.7l-1.3-2.4l-0.8-1.4l-1.6-2.8l-3.1-5.5
					c-5.1-9.2-11.6-17.2-17.6-25.6c-5.5-7.6-8.8-16.6-16.1-23.4c-1.9-1.8-4.2-3.9-6.9-5.5c-2.8-1.6-6-2.6-9.8-1.8
					c-1.8,0.4-3.7,2.2-5.2,3.9c1.2-1.4,1.6,0.3,1.7,2.3c0,2.1-0.4,4.5-0.4,4.8c0.1,3.2,1.1,5.6,1.6,8.4c1,5.4,0.6,10.9,3,15.2
					c5,8.9,11.3,16.8,17.2,25.2c2.5,3.6,5,7.1,7.4,10.7c1.2,1.8,2.4,3.6,3.5,5.4c0.5,0.9,1.1,1.8,1.6,2.7l0.8,1.3c0,0,0,0.1,0,0.1
					c0,0.2-0.1,0.4-0.4,0.5C70.5,206.3,70.3,206.2,70.2,206.2z"/>
			</g>
		</g>
	</g>
</g>
<g>
	<g>
		<g>
			<path class="st0" d="M256.9,326l-0.3,0.3C256.8,326.2,256.9,326.2,256.9,326z"/>
			<path class="st0" d="M299.6,287.5l0.2,0.4C299.8,287.7,299.7,287.5,299.6,287.5z"/>
			<path class="st0" d="M284.7,253.3l0.2-0.3C284.8,253.1,284.7,253.2,284.7,253.3z"/>
			<g>
				<path class="st0" d="M266.2,268.1c-8,7-15.2,14.8-21.6,23.4c-6.5,8.9-12.3,18.5-20.1,26.2c-8.3,8.1-16.9,15.8-24.6,24.6
					c-7.7,8.9-16.3,16.3-25.1,24c-8.5,7.4-14.8,17.1-23.9,23.8c-2.4,1.8-5,3.4-7.5,5.1c-1.2,0.8-5.2,7.5-5.6,9.2
					c-0.2,0.8,4.6-0.4,5.9-0.8c4.3-1.2,10.6-3.3,13.5-4.9c5.8-3.1,8.5-4.5,13.7-8.5c10.7-8.2,20.8-16.6,32.9-23.2
					c9.7-5.3,16.9-14.2,25.7-20.7c9.6-7,19.8-13.2,28.5-21.4c9.2-8.6,19.8-15.6,28.9-24.4c9-8.6,17.5-17.7,26.7-26.1
					c5.3-4.9,10.8-9.7,16.3-14.4c14-11.9,26.9-24.9,40.5-37.2c6.2-5.5,12.8-10.4,19.4-15.3c6.5-5,13-10,18.8-16.4
					c3.1-3.4,6.8-7.3,9.8-11.9c2.9-4.5,5.1-9.7,4.8-15.1c-0.1-2.6-2.2-5.2-4.4-7.1c1.8,1.5-0.8,2.6-3.9,3.2
					c-3.1,0.6-6.8,0.7-7.2,0.8c-4.9,1.2-9,3.6-13.5,5.3c-8.7,3.3-17.6,4.9-25.1,10.4c-15.8,11.4-29.5,24.9-43.7,38
					c-12.1,11.2-23.9,22.7-36.2,33.6C281.9,255.1,273.9,261.4,266.2,268.1z"/>
			</g>
		</g>
	</g>
</g>
</svg>
